<svg width="19119" height="5339" viewBox="0 0 19119 5339" fill="none" xmlns="http://www.w3.org/2000/svg">
<path d="M0 1220.03C0 546.234 546.234 0 1220.03 0H4118.94C4792.76 0 5339 546.234 5339 1220.03V4118.94C5339 4792.76 4792.76 5339 4118.94 5339H1220.03C546.234 5339 0 4792.76 0 4118.94V1220.03Z" fill="black"/>
<path d="M1418.18 3920.82C1418.18 3575.27 1698.3 3295.15 2043.84 3295.15H2669.48V3920.82C2669.48 4266.36 2389.39 4546.49 2043.84 4546.49C1698.3 4546.49 1418.18 4266.36 1418.18 3920.82Z" fill="#24CB71"/>
<path d="M2669.48 792.511V2043.82H3295.15C3640.69 2043.82 3920.82 1763.72 3920.82 1418.18C3920.82 1072.63 3640.69 792.511 3295.15 792.511H2669.48Z" fill="#FF7237"/>
<path d="M3289.96 3295.15C3635.5 3295.15 3915.62 3015.03 3915.62 2669.48C3915.62 2323.94 3635.5 2043.82 3289.96 2043.82C2944.41 2043.82 2664.3 2323.94 2664.3 2669.48C2664.3 3015.03 2944.41 3295.15 3289.96 3295.15Z" fill="#00B6FF"/>
<path d="M1418.18 1418.18C1418.18 1763.72 1698.3 2043.85 2043.84 2043.85H2669.48V792.511H2043.84C1698.3 792.511 1418.18 1072.63 1418.18 1418.18Z" fill="#FF3737"/>
<path d="M1418.18 2669.48C1418.18 3015.03 1698.3 3295.15 2043.84 3295.15H2669.48V2043.85H2043.84C1698.3 2043.85 1418.18 2323.94 1418.18 2669.48Z" fill="#874FFF"/>
<path d="M17935.6 4510.43C17771.1 4510.43 17623.4 4478.62 17492.5 4415.02C17364.9 4351.42 17262.5 4266.04 17185.3 4158.91C17111.4 4048.44 17074.5 3921.21 17074.5 3777.25C17074.5 3589.79 17134.9 3437.47 17255.8 3320.28C17376.7 3203.11 17549.5 3122.78 17774.4 3079.26L18363.6 2958.72C18481.1 2935.3 18561.7 2898.46 18605.3 2848.25C18649 2798.03 18670.8 2724.39 18670.8 2627.3L18731.2 3214.82L17885.2 3395.62C17771.1 3419.04 17682.1 3460.89 17618.4 3521.14C17557.9 3581.43 17527.7 3665.1 17527.7 3772.23C17527.7 3882.73 17569.7 3971.43 17653.6 4038.4C17740.9 4105.35 17858.4 4138.84 18006.1 4138.84C18127 4138.84 18237.7 4112.04 18338.4 4058.48C18442.5 4004.91 18523.1 3931.25 18580.2 3837.53C18640.6 3740.45 18670.8 3629.97 18670.8 3506.09V2627.3C18670.8 2506.76 18627.2 2413.05 18539.9 2346.08C18455.9 2275.78 18340.1 2240.62 18192.4 2240.62C18004.4 2240.62 17860.1 2287.49 17759.4 2381.24C17658.6 2474.98 17599.9 2607.2 17583.1 2777.96L17140 2717.7C17156.8 2540.25 17210.5 2387.93 17301.1 2260.73C17391.7 2130.15 17512.6 2029.72 17663.7 1959.43C17814.7 1889.1 17994.3 1853.97 18202.5 1853.97C18497.9 1853.97 18724.5 1929.28 18882.3 2079.93C19040.1 2230.59 19119 2424.76 19119 2662.43V4435.09H18680.9V4108.69C18637.2 4219.17 18548.3 4314.58 18414 4394.94C18283 4471.92 18123.6 4510.43 17935.6 4510.43Z" fill="black"/>
<path d="M13504.1 4435.09V1929.28H13942.1V2210.51C13975.7 2113.42 14049.6 2029.72 14163.7 1959.43C14277.8 1889.1 14410.4 1853.97 14561.5 1853.97C14709.2 1853.97 14845.2 1885.76 14969.4 1949.36C15093.6 2012.99 15174.2 2108.4 15211.1 2235.6C15254.7 2118.44 15335.3 2026.37 15452.8 1959.43C15573.7 1889.1 15708 1853.97 15855.7 1853.97C16110.8 1853.97 16305.5 1927.61 16439.8 2074.92C16574.1 2222.22 16641.2 2436.47 16641.2 2717.7V4435.09H16193V2777.96C16193 2610.54 16156.1 2485.02 16082.3 2401.31C16011.8 2314.29 15907.7 2270.77 15770.1 2270.77C15619 2270.77 15501.5 2324.33 15417.6 2431.45C15337 2535.23 15296.7 2687.56 15296.7 2888.43V4435.09H14848.5V2777.96C14848.5 2610.54 14811.6 2485.02 14737.8 2401.31C14667.3 2314.29 14563.2 2270.77 14425.6 2270.77C14274.5 2270.77 14157 2324.33 14073 2431.45C13992.5 2535.23 13952.2 2687.56 13952.2 2888.43V4435.09H13504.1Z" fill="black"/>
<path d="M11790.4 5339C11478.2 5339 11224.7 5267.03 11030 5123.08C10835.3 4979.12 10711.1 4778.25 10657.4 4520.47L11095.5 4425.05C11132.4 4589.09 11211.3 4716.32 11332.1 4806.72C11453 4900.46 11605.7 4947.33 11790.4 4947.33C12011.9 4947.33 12178.1 4890.39 12288.9 4776.57C12403 4666.1 12460.1 4500.39 12460.1 4279.42V3882.73C12409.8 4006.59 12315.7 4107.02 12178.1 4184.01C12043.8 4261.02 11892.8 4299.53 11724.9 4299.53C11503.3 4299.53 11308.7 4249.31 11140.8 4148.87C10972.9 4045.09 10842 3901.13 10748 3716.99C10654 3532.88 10607 3320.28 10607 3079.26C10607 2834.86 10654 2620.61 10748 2436.47C10842 2252.33 10971.3 2110.08 11135.7 2009.64C11303.6 1905.86 11500 1853.97 11724.9 1853.97C11892.8 1853.97 12045.5 1892.45 12183.2 1969.46C12324.1 2043.1 12419.8 2135.17 12470.2 2245.64V1929.28H12908.3V4279.42C12908.3 4500.39 12864.6 4689.52 12777.3 4846.9C12690.1 5007.58 12562.5 5129.77 12394.6 5213.47C12230.2 5297.15 12028.7 5339 11790.4 5339ZM11780.3 3902.81C11995.2 3902.81 12166.4 3827.47 12293.9 3676.81C12424.9 3526.16 12490.3 3327 12490.3 3079.26C12490.3 2828.17 12424.9 2627.3 12293.9 2476.65C12163 2326 11991.8 2250.66 11780.3 2250.66C11565.4 2250.66 11392.6 2326 11261.6 2476.65C11134.1 2627.3 11070.3 2828.17 11070.3 3079.26C11070.3 3327 11135.7 3526.16 11266.7 3676.81C11397.6 3827.47 11568.8 3902.81 11780.3 3902.81Z" fill="black"/>
<path d="M9702.58 4432.16V1929.28H10150.8V4435.09L9702.58 4432.16ZM9697.56 1607.9V894.827H10155.8V1607.9H9697.56Z" fill="black"/>
<path d="M7128.59 4435.09V894.827H7601.93V4435.09H7128.59ZM7224.28 2938.64V2511.78H9152.9V2938.64H7224.28ZM7224.28 1326.68V894.827H9339.22V1326.68H7224.28Z" fill="black"/>
</svg>
